<svg xmlns="http://www.w3.org/2000/svg" viewBox="247 25 20 20" x="0px" y="0px"><desc>Created with Sketch.</desc><path d="M253 38h9.493c1.387 0 2.507-1.119 2.507-2.499v-1.501c0-.556-.448-1-1-1-.556 0-1 .448-1 1v1c0 .556-.446 1-.996 1h-9.004v-3l-4 4 4 4v-3zm8-10h-9.493c-1.387 0-2.507 1.119-2.507 2.499v1.501c0 .556.448 1 1 1 .556 0 1-.448 1-1v-1c0-.556.446-1 .996-1h9.004v3l4-4-4-4v3z" fill-rule="evenodd"/><text x="247" y="56" fill="#000000" font-size="5px" font-weight="bold" font-family="'Helvetica Neue', Helvetica, Arial-Unicode, Arial, Sans-serif">Created by Asif Shirazi</text><text x="247" y="61" fill="#000000" font-size="5px" font-weight="bold" font-family="'Helvetica Neue', Helvetica, Arial-Unicode, Arial, Sans-serif">from the Noun Project</text></svg>