<svg xmlns="http://www.w3.org/2000/svg" viewBox="0 0 64 80" x="0px" y="0px"><g><path d="M48.565,36.572A8,8,0,0,0,42,24v2a6,6,0,0,1,2.571,11.423l.858,1.806A8.015,8.015,0,0,0,48.565,36.572Z"/><rect x="42" y="46" width="2" height="2"/><rect x="46" y="45" width="2" height="2"/><path d="M42,12a18.658,18.658,0,0,0-2,.128V9H2V55H40V51.872A18.658,18.658,0,0,0,42,52a20,20,0,0,0,0-40ZM6,53H4V27H20a2,2,0,0,1,0,4H13a7.008,7.008,0,0,0-7,7Zm4-15V53H8V38a5.006,5.006,0,0,1,5-5h7a4,4,0,0,0,0-8H4V23H20a6,6,0,0,1,0,12H13A3,3,0,0,0,10,38ZM38,53H12V38a1,1,0,0,1,1-1h7a8,8,0,0,0,0-16H4V11H38Zm2-38.871A16.43,16.43,0,0,1,42,14a17.868,17.868,0,0,1,8.209,2H40ZM40,18H53.289a18.109,18.109,0,0,1,2.089,2H40Zm0,17.444A3.959,3.959,0,0,0,42,36a4,4,0,0,0,0-8,3.959,3.959,0,0,0-2,.556V22.209A9.812,9.812,0,0,1,42,22a10,10,0,0,1,0,20,9.812,9.812,0,0,1-2-.209ZM40,32a2,2,0,1,1,2,2A2,2,0,0,1,40,32Zm2,18a16.43,16.43,0,0,1-2-.129V43.82A11.784,11.784,0,0,0,42,44a12,12,0,0,0,10.376-6H58.95A18.016,18.016,0,0,1,42,50ZM60,32a17.949,17.949,0,0,1-.464,4H53.3a11.85,11.85,0,0,0-.924-10H58.95A17.9,17.9,0,0,1,60,32Zm-1.9-8H50.919a12.089,12.089,0,0,0-2.3-2h8.337A18.176,18.176,0,0,1,58.1,24Z"/><rect x="6" y="13" width="2" height="2"/><rect x="10" y="13" width="2" height="2"/><path d="M18,51H36V43H18Zm2-6H34v4H20Z"/><polygon points="34 20 36 20 36 13 32 13 32 15 34 15 34 20"/></g><text x="0" y="79" fill="#000000" font-size="5px" font-weight="bold" font-family="'Helvetica Neue', Helvetica, Arial-Unicode, Arial, Sans-serif">Created by Smalllike</text><text x="0" y="84" fill="#000000" font-size="5px" font-weight="bold" font-family="'Helvetica Neue', Helvetica, Arial-Unicode, Arial, Sans-serif">from the Noun Project</text></svg>