<svg aria-hidden="true" focusable="false" data-prefix="fad" data-icon="login" role="img" xmlns="http://www.w3.org/2000/svg" xmlns:xlink="http://www.w3.org/1999/xlink" xml:space="preserve" version="1.1" style="shape-rendering:geometricPrecision;text-rendering:geometricPrecision;image-rendering:optimizeQuality;" viewBox="0 0 399.88 456.4375" x="0px" y="0px" class="svg-inline--fa fa-alien-monster fa-w-18 fa-9x">

  <g class="fa-group">
    <path class="fa-primary" fill="currentColor" d="M300.77 73.2l0 -9.73c0,-3.89 3.17,-7.07 7.07,-7.07l28.51 0c3.89,0 7.07,3.18 7.07,7.07l0 41.42 53.6 39.82c3.12,2.32 3.78,6.76 1.46,9.88l-16.9 22.8c-2.32,3.13 -6.77,3.79 -9.89,1.46l-23.09 -17.15 0 160.18c0,23.79 -19.47,43.26 -43.26,43.26l-57.88 0 0 -127.33c0,-8.72 -7.13,-15.85 -15.84,-15.85l-63.36 0c-8.71,0 -15.84,7.13 -15.84,15.85l0 127.33 -57.88 0c-23.79,0 -43.26,-19.47 -43.26,-43.26l0 -160.18 -23.09 17.15c-3.12,2.33 -7.57,1.67 -9.89,-1.46l-16.9 -22.8c-2.32,-3.12 -1.66,-7.56 1.46,-9.88l192.87 -143.29c2.54,-1.89 5.88,-1.89 8.42,0l96.62 71.78z" />
  </g>
</svg>